HIERARCHY
ROOT Hips
{
	OFFSET	0.000000	0.000000	0.000000
	CHANNELS 6 Xposition Yposition Zposition Zrotation Xrotation Yrotation
	JOINT LeftUpLeg
	{
		OFFSET	12.811937	-7.635976	0.557276
		CHANNELS 3 Zrotation Xrotation Yrotation
		JOINT LeftLeg
		{
			OFFSET	-0.429270	-42.206159	-1.204951
			CHANNELS 3 Zrotation Xrotation Yrotation
			JOINT LeftFoot
			{
				OFFSET	-2.112259	-42.464481	-3.973220
				CHANNELS 3 Zrotation Xrotation Yrotation
				JOINT LeftFootHeel
				{
					OFFSET	0.387196	-5.329707	-3.419729
					CHANNELS 3 Zrotation Xrotation Yrotation
					End Site
					{
						OFFSET	0.327567	-0.000003	16.505428
					}
				}
			}
		}
	}
	JOINT RightUpLeg
	{
		OFFSET	-12.811937	-7.635976	0.557276
		CHANNELS 3 Zrotation Xrotation Yrotation
		JOINT RightLeg
		{
			OFFSET	0.429270	-42.206159	-1.204951
			CHANNELS 3 Zrotation Xrotation Yrotation
			JOINT RightFoot
			{
				OFFSET	2.112259	-42.464481	-3.973220
				CHANNELS 3 Zrotation Xrotation Yrotation
				JOINT RightFootHeel
				{
					OFFSET	-0.387198	-5.329707	-3.419729
					CHANNELS 3 Zrotation Xrotation Yrotation
					End Site
					{
						OFFSET	-0.327566	-0.000003	16.505428
					}
				}
			}
		}
	}
	JOINT Spine
	{
		OFFSET	0.000000	13.731315	-1.007646
		CHANNELS 3 Zrotation Xrotation Yrotation
		JOINT Spine1
		{
			OFFSET	0.000000	12.091746	-0.604589
			CHANNELS 3 Zrotation Xrotation Yrotation
			JOINT LeftShoulder
			{
				OFFSET	5.746115	20.990027	-0.833816
				CHANNELS 3 Zrotation Xrotation Yrotation
				JOINT LeftArm
				{
					OFFSET	10.881538	-1.359258	0.219250
					CHANNELS 3 Zrotation Xrotation Yrotation
					JOINT LeftForeArm
					{
						OFFSET	4.390314	-31.537147	0.202818
						CHANNELS 3 Zrotation Xrotation Yrotation
						JOINT LeftHand
						{
							OFFSET	3.168650	-24.865023	5.373370
							CHANNELS 3 Zrotation Xrotation Yrotation
							End Site
							{
								OFFSET	1.457528	-10.806075	2.170267
							}
						}
					}
				}
			}
			JOINT RightShoulder
			{
				OFFSET	-5.746115	20.990027	-0.833816
				CHANNELS 3 Zrotation Xrotation Yrotation
				JOINT RightArm
				{
					OFFSET	-10.881538	-1.359258	0.219250
					CHANNELS 3 Zrotation Xrotation Yrotation
					JOINT RightForeArm
					{
						OFFSET	-4.390314	-31.537147	0.202818
						CHANNELS 3 Zrotation Xrotation Yrotation
						JOINT RightHand
						{
							OFFSET	-3.168650	-24.865023	5.373370
							CHANNELS 3 Zrotation Xrotation Yrotation
							End Site
							{
								OFFSET	-1.457528	-10.806075	2.170267
							}
						}
					}
				}
			}
			JOINT Neck
			{
				OFFSET	0.000000	27.075639	0.680489
				CHANNELS 3 Zrotation Xrotation Yrotation
				JOINT Head
				{
					OFFSET	0.000000	12.391287	1.239129
					CHANNELS 3 Zrotation Xrotation Yrotation
					End Site
					{
						OFFSET	0.000000	13.818691	-0.105853
					}
				}
			}
		}
	}
}
MOTION
Frames:    13
Frame Time: 0.016667
0.976256	99.883950	3.005356	0.638379	8.383831	47.171909	-4.780085	-12.007626	-9.035727	2.345832	6.861222	-13.911110	-6.952422	5.491864	-29.709070	0.	0.	0.	-0.603707	3.184041	-19.147797	-2.969282	-1.111247	-16.410002	2.186078	-7.687558	-12.874979	0.	0.	0.	1.164894	1.526457	10.540453	-1.331081	0.964031	-5.143451	-2.285957	-3.047037	19.877724	0.926888	-0.709538	3.740984	0.688624	-3.572016	0.848856	2.875376	-0.940050	-20.121349	-5.380404	-2.069295	21.371092	0.206029	0.425359	4.224766	1.812680	1.079804	8.466356	-3.605335	-2.821610	34.388866	-14.649438	-2.890545	19.907263	1.193316	-8.447424	66.887939	
1.098389	99.863060	2.869626	0.437186	8.395531	48.005154	-4.777013	-12.286614	-9.058225	2.366441	6.934780	-14.213326	-6.975646	5.764093	-30.228897	0.	0.	0.	-0.564803	2.959825	-19.477892	-3.033395	-0.756992	-16.517511	2.296907	-7.863919	-13.213876	0.	0.	0.	1.146013	1.596934	10.794753	-1.420551	0.872863	-5.071021	-2.294212	-3.001965	19.953018	0.894509	-0.527125	4.083641	0.780271	-3.455435	0.800720	2.933726	-0.857849	-20.094820	-5.397600	-2.137746	21.426838	-0.001832	0.277217	4.147670	1.829718	1.035035	8.436814	-3.703828	-2.800575	34.324886	-14.749276	-2.908199	19.889711	1.193859	-8.397079	66.876381	
1.375395	99.836676	2.753120	-0.012465	8.448458	49.200523	-4.705383	-12.827015	-9.113100	2.393897	7.019262	-14.606852	-6.993215	6.195422	-31.001106	0.	0.	0.	-0.536628	2.484024	-20.039743	-3.116222	-0.040623	-16.393013	2.560464	-8.268563	-13.856106	0.	0.	0.	1.174311	1.548962	11.167416	-1.489641	0.749410	-4.936375	-2.364145	-2.906681	20.048466	0.820347	-0.226384	4.609346	0.932329	-3.259426	0.693568	2.953905	-0.807974	-19.970379	-5.474160	-2.192112	21.474867	-0.366330	-0.060089	3.967156	1.889603	0.924681	8.446986	-4.159889	-2.991074	34.642708	-14.936440	-2.903264	19.874285	1.198876	-8.393384	66.833061	
1.427093	99.881227	2.747082	-0.284786	8.473187	49.990376	-4.678576	-13.144109	-9.210588	2.406880	7.049068	-14.858667	-7.018312	6.497971	-31.453636	0.	0.	0.	-0.569946	2.198216	-20.537447	-3.085962	0.364801	-16.331869	2.669927	-8.477899	-14.129896	0.	0.	0.	1.192684	1.519978	11.346479	-1.523651	0.700195	-4.826495	-2.433251	-2.841870	20.110003	0.762721	-0.014734	4.973533	1.032016	-3.115247	0.624332	2.945475	-0.805401	-19.873470	-5.543040	-2.222659	21.499371	-0.629109	-0.333941	3.823496	1.944705	0.820412	8.463106	-4.329392	-3.104763	34.528572	-15.067799	-2.892390	19.880186	1.214271	-8.446426	66.770653	
1.498929	99.904773	2.773159	-0.389996	8.486160	50.379925	-4.710848	-13.201430	-9.600860	2.406343	7.001502	-14.650442	-7.035583	6.652199	-31.666256	0.	0.	0.	-0.601701	2.081163	-20.795134	-3.000945	0.437415	-16.441841	2.669927	-8.477899	-14.129896	0.	0.	0.	1.180318	1.525941	11.427315	-1.548897	0.679583	-4.780180	-2.461374	-2.805202	20.136753	0.729842	0.087334	5.155744	1.082097	-3.029008	0.601190	2.944888	-0.810703	-19.830391	-5.563665	-2.235106	21.514536	-0.767370	-0.480831	3.749714	1.975664	0.761365	8.465772	-4.135451	-2.968249	34.082287	-15.120130	-2.895814	19.882469	1.229251	-8.474210	66.737450	
1.498929	99.904773	2.773159	-0.389996	8.486160	50.379925	-4.710848	-13.201430	-9.600860	2.406343	7.001502	-14.650442	-7.035583	6.652199	-31.666256	0.	0.	0.	-0.601701	2.081163	-20.795134	-3.000945	0.437415	-16.441841	2.669927	-8.477899	-14.129896	0.	0.	0.	1.180318	1.525941	11.427315	-1.548897	0.679583	-4.780180	-2.461374	-2.805202	20.136753	0.729842	0.087334	5.155744	1.082097	-3.029008	0.601190	2.944888	-0.810703	-19.830391	-5.563665	-2.235106	21.514536	-0.767370	-0.480831	3.749714	1.975664	0.761365	8.465772	-4.135451	-2.968249	34.082287	-15.120130	-2.895814	19.882469	1.229251	-8.474210	66.737450	
1.504894	99.929064	2.734778	-0.595605	8.523880	51.507587	-4.783016	-13.584724	-9.395445	2.429800	7.086763	-15.354718	-7.078338	7.077507	-32.305771	0.	0.	0.	-0.708689	1.828792	-21.529390	-3.027974	0.984932	-16.441689	2.782640	-8.776562	-14.421914	0.	0.	0.	1.100967	1.608216	11.625161	-1.655192	0.657249	-4.650184	-2.536785	-2.705467	20.243568	0.660713	0.376041	5.698909	1.217967	-2.682226	0.526901	2.932478	-0.845083	-19.752163	-5.611355	-2.282230	21.578514	-1.153041	-0.933409	3.494448	2.041894	0.546904	8.456820	-4.450360	-3.152448	33.954609	-15.241723	-2.941214	19.911020	1.283526	-8.584020	66.617134	
1.522625	99.939102	2.717057	-0.707080	8.551711	52.585724	-4.906021	-13.849193	-9.480630	2.420395	7.154140	-15.756748	-7.171117	7.481946	-32.910538	0.	0.	0.	-0.814040	1.665058	-22.199596	-3.123494	1.486030	-16.602104	2.958945	-9.044835	-14.590530	0.	0.	0.	0.998535	1.778517	11.776344	-1.740875	0.632899	-4.520303	-2.656362	-2.633508	20.349409	0.656565	0.635594	6.228357	1.322310	-2.120679	0.455585	2.887110	-0.923911	-19.749735	-5.688492	-2.355832	21.661467	-1.486644	-1.355395	3.179508	2.086761	0.242698	8.368123	-4.789690	-3.372505	33.823105	-15.374662	-3.115485	19.934389	1.372272	-8.614494	66.468018	
1.529336	99.949111	2.694039	-0.755562	8.525629	53.287086	-4.966369	-13.982527	-9.541559	2.409513	7.199313	-16.022989	-7.262938	7.756906	-33.305794	0.	0.	0.	-0.853840	1.597509	-22.571070	-3.193447	1.820248	-16.738052	3.069202	-9.221810	-14.735782	0.	0.	0.	0.952440	1.943076	11.873058	-1.784000	0.598950	-4.425662	-2.733517	-2.595088	20.401409	0.623824	0.790155	6.471261	1.442405	-1.600932	0.487641	2.849715	-0.961996	-19.753242	-5.737568	-2.408067	21.711302	-1.674502	-1.590647	2.888135	2.113657	-0.035731	8.264854	-4.475592	-2.937916	33.281116	-15.462635	-3.158314	19.917292	1.412868	-8.671013	66.402206	
1.529336	99.949111	2.694039	-0.755562	8.525629	53.287086	-4.966369	-13.982527	-9.541559	2.409513	7.199313	-16.022989	-7.262938	7.756906	-33.305794	0.	0.	0.	-0.853840	1.597509	-22.571070	-3.193447	1.820248	-16.738052	3.034003	-9.221352	-14.725987	0.	0.	0.	0.952440	1.943076	11.873058	-1.784000	0.598950	-4.425662	-2.733517	-2.595088	20.401409	0.430435	1.107216	7.602920	1.560598	-1.968763	-0.632102	2.849715	-0.961996	-19.753242	-5.737568	-2.408067	21.711302	-1.674502	-1.590647	2.888135	2.113657	-0.035731	8.264854	-5.022193	-3.504588	33.717781	-15.462635	-3.158314	19.917292	1.412868	-8.671013	66.402206	
1.716888	99.974933	2.761007	-0.836242	8.468785	54.317139	-5.126029	-13.923675	-10.589370	2.403884	7.112983	-15.607224	-7.332621	8.022389	-33.731731	0.	0.	0.	-0.902508	1.482628	-23.027575	-3.290473	2.334549	-16.933493	3.266330	-9.483411	-15.052091	0.	0.	0.	0.901035	2.174427	12.006358	-1.888725	0.541357	-4.292984	-2.778589	-2.551306	20.477966	0.512042	0.991691	6.782347	1.703199	-0.664962	0.597352	2.852386	-0.904755	-19.777962	-5.768690	-2.458926	21.783606	-1.879688	-1.940668	2.374406	2.176045	-0.496511	8.065475	-5.395851	-3.728971	33.454262	-15.546680	-3.171524	19.891108	1.520559	-8.726719	66.273125	
1.576110	99.977191	2.644095	-0.881063	8.438758	54.987335	-5.107659	-14.226936	-9.735252	2.393271	7.229300	-16.520815	-7.367249	8.389041	-34.336246	0.	0.	0.	-0.950346	1.401741	-23.259264	-3.352957	2.679434	-17.094076	3.376686	-9.649670	-15.284963	0.	0.	0.	0.791471	2.379197	12.450198	-1.891708	0.433313	-4.574980	-2.815406	-2.520826	20.524433	0.430086	1.124587	7.017506	1.875865	-0.020949	0.692247	2.899369	-0.781615	-19.832651	-5.794061	-2.481171	21.817944	-1.977293	-2.194206	2.056097	2.216651	-0.771914	7.917363	-5.620020	-3.911153	33.178173	-15.680501	-3.138985	20.231899	1.646253	-8.795024	65.802147	
1.626152	99.976493	2.627186	-0.979457	8.454796	55.961143	-5.230082	-14.376131	-9.891112	2.353395	7.192567	-16.826151	-7.315800	8.668453	-34.846260	0.	0.	0.	-1.040552	1.217488	-23.520874	-3.451104	3.172593	-17.401846	3.499897	-9.875560	-15.610725	0.	0.	0.	0.752269	2.393178	12.207409	-1.968442	0.466933	-4.118128	-2.910113	-2.473252	20.607777	0.261982	1.327162	7.416656	2.147247	0.873467	0.906981	3.009603	-0.519818	-19.980656	-5.846729	-2.495299	21.858925	-2.117441	-2.623950	1.730483	2.271635	-1.099656	7.681913	-5.555129	-3.523731	32.589848	-15.689917	-2.989501	19.777811	1.817854	-8.837320	65.968826	
